<svg width="180" height="180" viewBox="0 0 180 180" xmlns="http://www.w3.org/2000/svg">
  <!-- Background with navy color and rounded corners for iOS -->
  <rect width="180" height="180" rx="40" ry="40" fill="#1B265D"/>
  
  <!-- SubTrack Pro logo adapted for iOS app icon -->
  <g transform="translate(90, 90)">
    <!-- Main "S" lettermark scaled for visibility -->
    <path d="M-35 -25c0-8 7-15 15-15h30c4 0 7 3 7 7s-3 7-7 7h-30v8h22c8 0 15 7 15 15s-7 15-15 15h-37c-4 0-7-3-7-7s3-7 7-7h22v-8h-7c-8 0-15-7-15-15z" fill="#00D4AA"/>
    
    <!-- Subscription tracking dots for context -->
    <circle cx="25" cy="-15" r="3" fill="#FFD700" opacity="0.8"/>
    <circle cx="25" cy="0" r="3" fill="#00D4AA" opacity="0.6"/>
    <circle cx="25" cy="15" r="3" fill="#FFD700" opacity="0.4"/>
  </g>
  
  <!-- Premium gradient overlay -->
  <defs>
    <radialGradient id="iosGradient" cx="50%" cy="30%" r="70%">
      <stop offset="0%" stop-color="#00D4AA" stop-opacity="0.2"/>
      <stop offset="100%" stop-color="#FFD700" stop-opacity="0.1"/>
    </radialGradient>
  </defs>
  <rect width="180" height="180" rx="40" ry="40" fill="url(#iosGradient)"/>
</svg>