<svg width="32" height="32" viewBox="0 0 32 32" xmlns="http://www.w3.org/2000/svg">
  <!-- Background circle with navy color -->
  <circle cx="16" cy="16" r="16" fill="#1B265D"/>
  
  <!-- SubTrack Pro "S" lettermark with green accent -->
  <path d="M8 12c0-2.2 1.8-4 4-4h8c1.1 0 2 .9 2 2s-.9 2-2 2h-8v2h6c2.2 0 4 1.8 4 4s-1.8 4-4 4H8c-1.1 0-2-.9-2-2s.9-2 2-2h6v-2h-2c-2.2 0-4-1.8-4-4z" fill="#00D4AA"/>
  
  <!-- Subtle gradient overlay for premium feel -->
  <defs>
    <linearGradient id="premium" x1="0%" y1="0%" x2="100%" y2="100%">
      <stop offset="0%" stop-color="#00D4AA" stop-opacity="0.8"/>
      <stop offset="100%" stop-color="#FFD700" stop-opacity="0.2"/>
    </linearGradient>
  </defs>
  <circle cx="16" cy="16" r="16" fill="url(#premium)" opacity="0.3"/>
</svg>